<?xml version="1.0" encoding="UTF-8"?>
<svg id="Layer_2" data-name="Layer 2" xmlns="http://www.w3.org/2000/svg" xmlns:xlink="http://www.w3.org/1999/xlink" viewBox="0 0 673.53 101.39">
  <defs>
    <style>
      .cls-1 {
        fill: url(#linear-gradient-12);
      }

      .cls-1, .cls-2, .cls-3, .cls-4, .cls-5, .cls-6, .cls-7, .cls-8, .cls-9, .cls-10, .cls-11, .cls-12, .cls-13, .cls-14, .cls-15, .cls-16 {
        stroke-width: 0px;
      }

      .cls-2 {
        fill: url(#linear-gradient);
      }

      .cls-3 {
        fill: #070d23;
      }

      .cls-4 {
        fill: url(#linear-gradient-6);
      }

      .cls-5 {
        fill: #ffbf1e;
      }

      .cls-6 {
        fill: url(#linear-gradient-11);
      }

      .cls-7 {
        fill: url(#linear-gradient-5);
      }

      .cls-8 {
        fill: url(#linear-gradient-13);
      }

      .cls-9 {
        fill: url(#linear-gradient-2);
      }

      .cls-10 {
        fill: url(#linear-gradient-7);
      }

      .cls-11 {
        fill: url(#linear-gradient-3);
      }

      .cls-12 {
        fill: url(#linear-gradient-9);
      }

      .cls-13 {
        fill: url(#linear-gradient-8);
      }

      .cls-14 {
        fill: url(#linear-gradient-10);
      }

      .cls-15 {
        fill: url(#linear-gradient-4);
      }

      .cls-16 {
        fill: #e23f13;
      }
    </style>
    <linearGradient id="linear-gradient" x1="102.58" y1="14.39" x2="102.58" y2="115.65" gradientUnits="userSpaceOnUse">
      <stop offset="0" stop-color="#ffbf1e"/>
      <stop offset=".5" stop-color="#f76914"/>
      <stop offset="1" stop-color="#ef3b0a"/>
    </linearGradient>
    <linearGradient id="linear-gradient-2" x1="161.25" y1="14.39" x2="161.25" y2="115.64" xlink:href="#linear-gradient"/>
    <linearGradient id="linear-gradient-3" x1="222.02" y1="14.39" x2="222.02" y2="115.64" xlink:href="#linear-gradient"/>
    <linearGradient id="linear-gradient-4" x1="294.95" y1="14.39" x2="294.95" y2="115.64" xlink:href="#linear-gradient"/>
    <linearGradient id="linear-gradient-5" x1="358.07" y1="14.39" x2="358.07" y2="115.64" xlink:href="#linear-gradient"/>
    <linearGradient id="linear-gradient-6" x1="417.68" y1="14.39" x2="417.68" y2="115.64" xlink:href="#linear-gradient"/>
    <linearGradient id="linear-gradient-7" x1="463.3" y1="14.39" x2="463.3" y2="115.64" xlink:href="#linear-gradient"/>
    <linearGradient id="linear-gradient-8" x1="512.36" y1="14.39" x2="512.36" y2="115.64" xlink:href="#linear-gradient"/>
    <linearGradient id="linear-gradient-9" x1="567.85" y1="14.39" x2="567.85" y2="115.64" xlink:href="#linear-gradient"/>
    <linearGradient id="linear-gradient-10" x1="626.25" y1="14.39" x2="626.25" y2="115.64" xlink:href="#linear-gradient"/>
    <linearGradient id="linear-gradient-11" x1="-878.45" y1="14.39" x2="-878.45" y2="115.64" gradientTransform="translate(960.6) skewX(-12.79)" xlink:href="#linear-gradient"/>
    <linearGradient id="linear-gradient-12" x1="-885.96" y1="14.39" x2="-885.96" y2="115.64" gradientTransform="translate(960.6) skewX(-12.79)" xlink:href="#linear-gradient"/>
    <linearGradient id="linear-gradient-13" x1="-883.9" y1="14.39" x2="-883.9" y2="115.64" gradientTransform="translate(960.6) skewX(-12.79)" xlink:href="#linear-gradient"/>
  </defs>
  <g id="Layer_1-2" data-name="Layer 1">
    <g>
      <polygon class="cls-16" points="673.53 0 666.02 101.38 382.01 101.38 106.3 101.39 61.71 101.39 58.3 94.69 48.45 94.69 0 0 673.53 0"/>
      <polygon class="cls-5" points="669.52 3.72 662.76 94.93 662.56 97.66 382.01 97.66 106.3 97.67 63.99 97.67 60.59 90.97 50.72 90.97 6.09 3.72 669.52 3.72"/>
      <polygon class="cls-3" points="662.86 9.93 656.79 91.46 382.01 91.46 106.3 91.47 67.79 91.47 64.38 84.77 54.52 84.77 16.23 9.93 662.86 9.93"/>
      <path class="cls-2" d="M124.22,48.67v-.31c4.08-1.31,7.25-3.42,9.53-6.32,2.28-2.9,3.42-6.36,3.42-10.36,0-5.73-2.04-10.22-6.11-13.47-3.94-3.04-9.4-4.56-16.37-4.56h-31.71l-14.99,66.82c.99.4,1.9,1.16,2.59,2.34.92,1.59,1.7,3.25,2.41,4.94h3.9s29.41,0,29.41,0c7.94,0,14.51-2.04,19.69-6.11,5.8-4.49,8.7-10.43,8.7-17.82s-3.49-12.57-10.47-15.13ZM113.91,70.69c-2.04,1.62-4.75,2.44-8.13,2.44h-16.37l3.42-17.72h15.23c2.69,0,4.85.69,6.48,2.07,1.62,1.38,2.44,3.35,2.44,5.91,0,3.25-1.02,5.68-3.06,7.31ZM116.86,41.1c-1.87,1.31-4.18,1.97-6.94,1.97h-14.72l2.9-15.13h13.99c2.42,0,4.28.61,5.6,1.81,1.31,1.21,1.97,2.82,1.97,4.82,0,3.04-.93,5.22-2.8,6.53Z"/>
      <path class="cls-9" d="M134.77,87.73l14.3-74.09h18.13l-11.4,58.65h31.92l-2.9,15.44h-50.05Z"/>
      <path class="cls-11" d="M186.73,87.73L225.9,13.64h18.45l12.95,74.09h-18.76l-1.86-13.47h-25.08l-6.53,13.47h-18.34ZM226.73,43.28l-8.7,17.93h16.99l-2.38-17.82-1.04-10.67h-.21c-1.94,4.56-3.49,8.08-4.66,10.57Z"/>
      <path class="cls-15" d="M258.37,87.73l2.69-14.2,38.03-38.45,6.53-6.22v-.31c-3.52.07-5.94.1-7.25.1h-26.01l2.9-15.03h56.27l-2.69,13.99-36.89,37.41-7.77,7.25v.31c3.73-.07,6.36-.1,7.88-.1h29.33l-2.9,15.23h-60.1Z"/>
      <path class="cls-7" d="M324.03,87.73l14.3-74.09h53.78l-2.9,14.92h-35.65l-2.59,13.58h30.67l-2.69,14.09h-30.78l-3.11,16.06h36.89l-3.01,15.44h-54.92Z"/>
      <path class="cls-4" d="M416.92,87.73c-4.11,0-7.92-.43-11.44-1.29-3.52-.86-6.75-2.19-9.7-3.98-2.95-1.79-5.24-4.29-6.86-7.51-1.63-3.22-2.37-6.98-2.24-11.29h17.41c-.07,3.52,1.09,6.1,3.48,7.76,2.39,1.66,5.67,2.49,9.85,2.49,3.31,0,6.05-.61,8.21-1.84,2.15-1.23,3.23-3.17,3.23-5.82,0-1.99-.99-3.6-2.98-4.82-1.99-1.23-5.67-2.8-11.04-4.72-7.16-2.52-12.42-5.24-15.76-8.15-3.35-2.92-5.02-7.06-5.02-12.43,0-7.16,2.5-12.7,7.51-16.61,5.01-3.91,11.59-5.87,19.74-5.87,3.65,0,7.06.38,10.24,1.14,3.18.76,6.13,1.96,8.85,3.58,2.72,1.62,4.82,3.9,6.32,6.81,1.49,2.92,2.14,6.37,1.94,10.34h-16.91c.07-2.79-.86-4.92-2.78-6.41-1.92-1.49-4.67-2.24-8.25-2.24-2.59,0-4.87.56-6.86,1.69-1.99,1.13-3.02,2.82-3.08,5.07,0,1.86.81,3.25,2.44,4.18,1.62.93,5.12,2.32,10.49,4.18.99.33,1.76.6,2.29.8,6.83,2.39,11.97,5.12,15.42,8.2,3.45,3.08,5.17,7.34,5.17,12.78,0,7.69-2.8,13.61-8.4,17.75-5.6,4.14-12.68,6.22-21.23,6.22Z"/>
      <path class="cls-10" d="M447.09,87.73l14.4-74.09h18.03l-14.3,74.09h-18.13Z"/>
      <path class="cls-13" d="M490.39,87.73l11.4-58.76h-20.83l2.9-15.34h59.9l-2.9,15.34h-21.04l-11.4,58.76h-18.03Z"/>
      <path class="cls-12" d="M533.81,87.73l14.3-74.09h53.78l-2.9,14.92h-35.65l-2.59,13.58h30.67l-2.69,14.09h-30.78l-3.11,16.06h36.89l-3.01,15.44h-54.92Z"/>
      <path class="cls-14" d="M625.49,87.73c-4.11,0-7.92-.43-11.44-1.29-3.52-.86-6.75-2.19-9.7-3.98-2.95-1.79-5.24-4.29-6.86-7.51-1.63-3.22-2.37-6.98-2.24-11.29h17.4c-.07,3.52,1.09,6.1,3.48,7.76,2.39,1.66,5.67,2.49,9.85,2.49,3.31,0,6.05-.61,8.2-1.84,2.15-1.23,3.23-3.17,3.23-5.82,0-1.99-.99-3.6-2.98-4.82-1.99-1.23-5.67-2.8-11.04-4.72-7.16-2.52-12.42-5.24-15.76-8.15-3.35-2.92-5.02-7.06-5.02-12.43,0-7.16,2.5-12.7,7.51-16.61,5.01-3.91,11.59-5.87,19.74-5.87,3.65,0,7.06.38,10.24,1.14,3.18.76,6.13,1.96,8.85,3.58,2.72,1.62,4.82,3.9,6.32,6.81,1.49,2.92,2.14,6.37,1.94,10.34h-16.91c.07-2.79-.86-4.92-2.78-6.41-1.92-1.49-4.67-2.24-8.25-2.24-2.59,0-4.87.56-6.86,1.69-1.99,1.13-3.02,2.82-3.08,5.07,0,1.86.81,3.25,2.44,4.18,1.62.93,5.12,2.32,10.49,4.18.99.33,1.76.6,2.29.8,6.83,2.39,11.97,5.12,15.42,8.2,3.45,3.08,5.17,7.34,5.17,12.78,0,7.69-2.8,13.61-8.4,17.75-5.6,4.14-12.68,6.22-21.23,6.22Z"/>
      <polygon class="cls-16" points="77.24 87.74 70.08 87.74 66.66 81.04 56.8 81.04 49.23 66.26 56.17 66.26 66.3 75.26 70.87 75.26 74.42 82.22 74.42 82.23 77.24 87.74"/>
      <polygon class="cls-6" points="72.39 66.26 74.42 82.23 70.86 75.26 60.78 75.26 56.17 66.26 72.39 66.26"/>
      <g>
        <polygon class="cls-16" points="80.46 44.77 69.45 44.77 64.5 35.09 33.28 35.09 22.31 13.64 39.42 13.64 46.83 28.14 71.97 28.14 80.46 44.77"/>
        <polygon class="cls-1" points="108.64 13.64 87.2 44.77 80.46 44.77 71.97 28.14 41.87 28.14 34.46 13.64 108.64 13.64"/>
      </g>
      <polygon class="cls-16" points="78.41 66.26 66.72 66.26 62.26 57.49 45.67 57.49 38.51 43.52 46.16 43.52 50.39 51.78 71.02 51.78 78.41 66.26"/>
      <polygon class="cls-8" points="87.48 43.53 75.6 60.77 71.02 51.79 50.39 51.79 46.16 43.53 87.48 43.53"/>
    </g>
  </g>
</svg>